<svg xmlns="http://www.w3.org/2000/svg" viewBox="0 0 192 192" role="img" aria-label="NVIDIA">
  <rect width="192" height="192" rx="38" fill="#76b900"/>
  <path d="M34 96c20-27 46-41 78-41 21 0 37 7 47 19-9-5-22-8-38-8-32 0-57 13-75 39 16-11 35-17 56-17 19 0 34 7 44 19-8 20-27 34-51 34-24 0-45-11-61-31 23 13 44 19 64 19 15 0 27-5 35-14-8-7-19-10-32-10-21 0-40 8-57 23-9-8-13-19-10-32z" fill="#0a0a08"/>
  <circle cx="101" cy="101" r="13" fill="#76b900"/>
  <circle cx="101" cy="101" r="6" fill="#0a0a08"/>
</svg>
